<svg width="24" height="24" viewBox="0 0 24 24" fill="none" xmlns="http://www.w3.org/2000/svg">
<g clip-path="url(#clip0_16_11)">
<path fill-rule="evenodd" clip-rule="evenodd" d="M21.8944 13.3341C21.6983 13.1376 21.4098 13.0655 21.1444 13.1466C18.2305 14.0275 15.0684 13.2338 12.9159 11.0813C10.7634 8.92881 9.96973 5.76665 10.8506 2.85281C10.9324 2.58725 10.8606 2.29825 10.6642 2.10177C10.4677 1.90529 10.1787 1.83354 9.91313 1.91531C7.93596 2.52098 6.20019 3.73481 4.95281 5.38406C2.7278 8.33813 2.36567 12.2968 4.01776 15.6055C5.66985 18.9143 9.05173 21.0035 12.75 21C14.8653 21.0065 16.9244 20.3189 18.6112 19.0425C20.2605 17.7951 21.4743 16.0593 22.08 14.0822C22.1608 13.8177 22.0895 13.5301 21.8944 13.3341V13.3341ZM17.7094 17.8444C14.4249 20.3182 9.82017 19.9958 6.91251 17.0884C4.00484 14.1809 3.68204 9.57623 6.15562 6.29156C6.93507 5.26224 7.94275 4.42786 9.09937 3.85406C9.03349 4.31646 9.00028 4.78293 9 5.25C9.00568 10.6324 13.3676 14.9943 18.75 15C19.218 14.9999 19.6854 14.9666 20.1488 14.9006C19.5744 16.0574 18.7394 17.0651 17.7094 17.8444V17.8444Z" fill="white"/>
</g>
<defs>
<clipPath id="clip0_16_11">
<rect width="24" height="24" fill="white"/>
</clipPath>
</defs>
</svg>
