<svg width="19" height="18" viewBox="0 0 19 18" fill="none" xmlns="http://www.w3.org/2000/svg">
<path fill-rule="evenodd" clip-rule="evenodd" d="M18.0011 7.49939H7.32201L17.4386 4.82845C17.632 4.77749 17.797 4.65138 17.897 4.47815C17.997 4.30492 18.0237 4.09893 17.9711 3.90595L17.2061 1.09345C16.987 0.306045 16.1756 -0.158964 15.3854 0.0500147L1.10826 3.81876C0.724237 3.91845 0.396492 4.16848 0.198881 4.51251C0.00013566 4.85238 -0.0522969 5.25831 0.0535681 5.63751L0.751068 8.20814C0.751068 8.22126 0.751068 8.23533 0.751068 8.24939V16.4994C0.751068 17.3278 1.42264 17.9994 2.25107 17.9994H17.2511C18.0795 17.9994 18.7511 17.3278 18.7511 16.4994V8.24939C18.7511 7.83518 18.4153 7.49939 18.0011 7.49939ZM10.5423 2.87939L13.1795 4.40564L7.65763 5.86345L5.02138 4.3372L10.5423 2.87939ZM17.2511 16.4994H2.25107V8.99939H17.2511V16.4994Z" fill="white"/>
</svg>
