<svg width="19" height="18" viewBox="0 0 19 18" fill="none" xmlns="http://www.w3.org/2000/svg">
<path fill-rule="evenodd" clip-rule="evenodd" d="M18.001 7.49939H7.32197L17.4385 4.82845C17.632 4.77749 17.797 4.65138 17.897 4.47815C17.997 4.30492 18.0236 4.09893 17.971 3.90595L17.206 1.09345C16.9869 0.306045 16.1756 -0.158964 15.3854 0.0500147L1.10823 3.81876C0.724206 3.91845 0.396461 4.16848 0.19885 4.51251C0.000105143 4.85238 -0.0523274 5.25831 0.0535376 5.63751L0.751038 8.20814C0.751038 8.22126 0.751038 8.23533 0.751038 8.24939V16.4994C0.751038 17.3278 1.42261 17.9994 2.25104 17.9994H17.251C18.0795 17.9994 18.751 17.3278 18.751 16.4994V8.24939C18.751 7.83518 18.4153 7.49939 18.001 7.49939ZM15.766 1.49939L16.3285 3.56845L14.2079 4.13095L11.5717 2.60845L15.766 1.49939ZM9.51385 3.14939L12.1501 4.67189L8.68698 5.58595L6.05072 4.06533L9.51385 3.14939ZM2.0701 7.33251L1.5076 5.26251L3.99198 4.60626L6.62823 6.13064L2.0701 7.33251ZM17.251 16.4994H2.25104V8.99939H17.251V16.4994Z" fill="#8FBDCC"/>
</svg>
