<svg width="16" height="16" viewBox="0 0 16 16" fill="none" xmlns="http://www.w3.org/2000/svg">
<path fill-rule="evenodd" clip-rule="evenodd" d="M15.6973 5.71558C15.5581 5.28636 15.1758 4.98188 14.7263 4.94214L10.5505 4.58214L8.91358 0.689644C8.73932 0.272002 8.33112 1.8239e-05 7.87858 1.8239e-05C7.42604 1.8239e-05 7.01784 0.272002 6.84358 0.689644L5.21163 4.58214L1.03084 4.94425C0.579486 4.98218 0.194895 5.2871 0.0550272 5.71791C-0.0848409 6.14872 0.0472963 6.6214 0.390297 6.91722L3.56209 9.68894L2.61147 13.805C2.5087 14.2454 2.67959 14.7045 3.04529 14.9705C3.41099 15.2365 3.90041 15.2577 4.28772 15.0243L7.87366 12.8446L11.4673 15.0243C11.8546 15.2577 12.3441 15.2365 12.7098 14.9705C13.0755 14.7045 13.2463 14.2454 13.1436 13.805L12.1937 9.68472L15.3647 6.91722C15.7077 6.62036 15.8389 6.14655 15.6973 5.71558ZM14.6272 6.06714L11.4561 8.83464C11.1416 9.10823 11.0041 9.53331 11.0989 9.93925L12.0516 14.0624L8.46077 11.8827C8.10362 11.6652 7.65495 11.6652 7.2978 11.8827L3.71186 14.0624L4.65827 9.94207C4.75305 9.53612 4.6156 9.11104 4.30108 8.83746L1.12858 6.07136C1.12832 6.06926 1.12832 6.06714 1.12858 6.06503L5.30795 5.70363C5.7238 5.66697 6.08517 5.40306 6.24662 5.01808L7.87858 1.1305L9.50983 5.01808C9.67129 5.40306 10.0326 5.66697 10.4485 5.70363L14.6286 6.06503C14.6286 6.06503 14.6286 6.06925 14.6286 6.06996L14.6272 6.06714Z" fill="#26BFF5"/>
</svg>
